<svg width="48" height="48" viewBox="0 0 48 48" fill="none" xmlns="http://www.w3.org/2000/svg">
<g clip-path="url(#clip0_631_19544)">
<path d="M40.4528 5.50928H7.54972C6.42271 5.50928 5.50909 6.4229 5.50909 7.5499V40.453C5.50909 41.58 6.42271 42.4937 7.54972 42.4937H40.4528C41.5799 42.4937 42.4935 41.58 42.4935 40.453V7.5499C42.4935 6.4229 41.5799 5.50928 40.4528 5.50928Z" fill="#3D5A98"/>
<path d="M31.0244 42.4907V28.1688H35.8307L36.5494 22.5875H31.0244V19.025C31.0244 17.4094 31.4744 16.3063 33.7901 16.3063H36.7463V11.3063C35.3148 11.1574 33.8762 11.0864 32.4369 11.0938C28.1807 11.0938 25.2494 13.6875 25.2494 18.4719V22.5875H20.4432V28.1688H25.2494V42.4907H31.0244Z" fill="white"/>
</g>
<defs>
<clipPath id="clip0_631_19544">
<rect width="38" height="38" fill="white" transform="translate(5 5)"/>
</clipPath>
</defs>
</svg>
