<svg width="16" height="16" viewBox="0 0 16 16" fill="none" xmlns="http://www.w3.org/2000/svg">
<g clip-path="url(#clip0_4026_17831)">
<path d="M7.66267 1.10882C7.69383 1.0428 7.74197 0.98722 7.80165 0.948363C7.86133 0.909506 7.93018 0.888916 8.00042 0.888916C8.07067 0.888916 8.13951 0.909506 8.19919 0.948363C8.25887 0.98722 8.30701 1.0428 8.33817 1.10882L9.98069 4.598C10.0889 4.82765 10.2486 5.02634 10.4462 5.177C10.6437 5.32767 10.8731 5.42582 11.1148 5.46302L14.7881 6.02678C14.8577 6.03735 14.9231 6.06814 14.9769 6.11566C15.0306 6.16319 15.0707 6.22554 15.0924 6.29568C15.1142 6.36582 15.1168 6.44095 15.0999 6.51256C15.0831 6.58417 15.0475 6.64941 14.9971 6.7009L12.3407 9.41379C12.1655 9.59283 12.0344 9.81385 11.9587 10.0578C11.883 10.3018 11.865 10.5614 11.9062 10.8142L12.5333 14.6472C12.5456 14.7201 12.5381 14.7952 12.5117 14.8639C12.4852 14.9326 12.4409 14.9922 12.3837 15.0357C12.3265 15.0792 12.2589 15.105 12.1884 15.1102C12.1179 15.1153 12.0475 15.0996 11.9851 15.0648L8.70151 13.2542C8.48515 13.135 8.24444 13.0728 8.00007 13.0728C7.75569 13.0728 7.51498 13.135 7.29862 13.2542L4.01571 15.0648C3.95338 15.0994 3.88303 15.115 3.81267 15.1097C3.74232 15.1045 3.67478 15.0786 3.61774 15.0351C3.56069 14.9916 3.51644 14.9322 3.49001 14.8636C3.46357 14.795 3.45602 14.72 3.46821 14.6472L4.09464 10.815C4.13602 10.562 4.11809 10.3022 4.04241 10.0581C3.96672 9.81401 3.83554 9.59287 3.66019 9.41379L1.00372 6.70164C0.952946 6.65021 0.916966 6.58486 0.899879 6.51303C0.882792 6.44121 0.885285 6.36579 0.907073 6.29537C0.92886 6.22496 0.969068 6.16238 1.02311 6.11476C1.07716 6.06714 1.14287 6.03639 1.21277 6.02603L4.88532 5.46302C5.12726 5.42611 5.35702 5.32809 5.55483 5.1774C5.75264 5.02672 5.91258 4.82788 6.02087 4.598L7.66267 1.10882Z" fill="white" stroke="white" stroke-width="1.33333" stroke-linecap="round" stroke-linejoin="round"/>
</g>
<defs>
<clipPath id="clip0_4026_17831">
<rect width="16" height="16" fill="white"/>
</clipPath>
</defs>
</svg>
