<svg width="24" height="24" viewBox="0 0 24 24" fill="none" xmlns="http://www.w3.org/2000/svg">
<path d="M17.9993 16.25C18.2993 17.33 19.1392 18.17 20.2192 18.47M2.70923 22C2.70923 18.13 6.55926 15 11.2993 15C12.3393 15 13.3392 15.15 14.2692 15.43M16.2993 7C16.2993 9.76142 14.0607 12 11.2993 12C8.53783 12 6.29926 9.76142 6.29926 7C6.29926 4.23858 8.53783 2 11.2993 2C14.0607 2 16.2993 4.23858 16.2993 7ZM18.5093 15.74L14.9692 19.2801C14.8292 19.4201 14.6992 19.68 14.6692 19.87L14.4792 21.22C14.4092 21.71 14.7492 22.05 15.2392 21.98L16.5892 21.79C16.7792 21.76 17.0492 21.63 17.1792 21.49L20.7192 17.95C21.3292 17.34 21.6192 16.63 20.7192 15.73C19.8292 14.84 19.1193 15.13 18.5093 15.74Z" stroke="#343A40" stroke-width="1.5" stroke-linecap="round" stroke-linejoin="round"/>
</svg>
